# xmcd
#
# Track frame offsets:
#	150
#	32966
#	60451
#	75375
#	91743
#	134640
#	160787
#
# Disc length: 2828 seconds
#
# Revision: 0
# Processed by: cddbd v1.5.2PL0 Copyright (c) Steve Scherf et al.
# Submitted via: dBpowerAMP V4.0
#
DISCID=4e0b0a07
DTITLE=fela - kalakuta
DYEAR=1900
DGENRE=
TTITLE0=lagos
TTITLE1=light
TTITLE2=power
TTITLE3=music
TTITLE4=right
TTITLE5=true
TTITLE6=follow
EXTD=
EXTT0=
EXTT1=
EXTT2=
EXTT3=
EXTT4=
EXTT5=
EXTT6=
PLAYORDER=
